<svg width="345" height="40" viewBox="0 0 345 40" fill="none" xmlns="http://www.w3.org/2000/svg">
<g clip-path="url(#clip0_1_19)">
<path d="M69.8027 13.3574V27H68.7383V20.5352H59.6367V27H58.582V13.3574H59.6367V19.6562H68.7383V13.3574H69.8027ZM80.291 22.1758H73.2109C73.1914 22.332 73.1816 22.4883 73.1816 22.6445C73.1816 23.6471 73.5397 24.4967 74.2559 25.1934C74.972 25.89 75.8184 26.2383 76.7949 26.2383C77.9342 26.2383 79.0475 25.7923 80.1348 24.9004V25.9844C79.1061 26.7786 77.9538 27.1758 76.6777 27.1758C75.3822 27.1758 74.3112 26.7266 73.4648 25.8281C72.6185 24.9297 72.1953 23.7871 72.1953 22.4004C72.1953 21.0853 72.5859 19.998 73.3672 19.1387C74.1484 18.2728 75.1315 17.8398 76.3164 17.8398C77.4297 17.8398 78.3704 18.2305 79.1387 19.0117C79.9069 19.7865 80.291 20.8411 80.291 22.1758ZM73.3379 21.4043H79.1582C78.8197 19.653 77.8724 18.7773 76.3164 18.7773C75.5807 18.7773 74.9427 19.0085 74.4023 19.4707C73.8685 19.9264 73.5137 20.571 73.3379 21.4043ZM83.3477 13.3574V27H82.3809V13.3574H83.3477ZM86.9707 18.0156V18.5234C87.8757 18.0677 88.7773 17.8398 89.6758 17.8398C90.9518 17.8398 92.0098 18.2793 92.8496 19.1582C93.6895 20.0371 94.1094 21.1439 94.1094 22.4785C94.1094 23.7936 93.6764 24.9069 92.8105 25.8184C91.9447 26.7233 90.8867 27.1758 89.6367 27.1758C88.7708 27.1758 87.8822 26.9512 86.9707 26.502V31.5996H86.0137V18.0156H86.9707ZM86.9707 19.4414V25.5645C87.7845 26.0137 88.6113 26.2383 89.4512 26.2383C90.5254 26.2383 91.3945 25.8997 92.0586 25.2227C92.7227 24.5456 93.0547 23.6569 93.0547 22.5566C93.0547 21.4629 92.7031 20.5612 92 19.8516C91.2969 19.1354 90.4082 18.7773 89.334 18.7773C88.5658 18.7773 87.778 18.9987 86.9707 19.4414ZM97.3125 13.3574V27H96.3457V13.3574H97.3125ZM101.082 13.3574V14.998H100.115V13.3574H101.082ZM101.082 18.0156V27H100.115V18.0156H101.082ZM104.686 18.0156V19.5781H104.725C105.473 18.4193 106.46 17.8398 107.684 17.8398C108.699 17.8398 109.51 18.1654 110.115 18.8164C110.721 19.4674 111.023 20.3691 111.023 21.5215V27H110.066V21.8828C110.066 19.8125 109.253 18.7773 107.625 18.7773C106.434 18.7773 105.454 19.4186 104.686 20.7012V27H103.729V18.0156H104.686ZM121.189 22.1758H114.109C114.09 22.332 114.08 22.4883 114.08 22.6445C114.08 23.6471 114.438 24.4967 115.154 25.1934C115.87 25.89 116.717 26.2383 117.693 26.2383C118.833 26.2383 119.946 25.7923 121.033 24.9004V25.9844C120.005 26.7786 118.852 27.1758 117.576 27.1758C116.281 27.1758 115.21 26.7266 114.363 25.8281C113.517 24.9297 113.094 23.7871 113.094 22.4004C113.094 21.0853 113.484 19.998 114.266 19.1387C115.047 18.2728 116.03 17.8398 117.215 17.8398C118.328 17.8398 119.269 18.2305 120.037 19.0117C120.805 19.7865 121.189 20.8411 121.189 22.1758ZM114.236 21.4043H120.057C119.718 19.653 118.771 18.7773 117.215 18.7773C116.479 18.7773 115.841 19.0085 115.301 19.4707C114.767 19.9264 114.412 20.571 114.236 21.4043ZM141.307 13.3574V27H140.428L130.066 15.0762V27H129.012V13.3574H129.91L140.252 25.2812V13.3574H141.307ZM150.457 27V25.5156H150.418C150.001 26.1146 149.572 26.541 149.129 26.7949C148.693 27.0488 148.136 27.1758 147.459 27.1758C146.495 27.1758 145.698 26.8633 145.066 26.2383C144.435 25.6133 144.119 24.7279 144.119 23.582V18.0156H145.076V23.5625C145.076 24.3958 145.304 25.0501 145.76 25.5254C146.215 26.0007 146.808 26.2383 147.537 26.2383C148.162 26.2383 148.693 26.0951 149.129 25.8086C149.572 25.5221 150.014 25.0273 150.457 24.3242V18.0156H151.414V27H150.457ZM154.842 18.0156V19.5977H154.881C155.61 18.4258 156.564 17.8398 157.742 17.8398C159.116 17.8398 160.083 18.5592 160.643 19.998C161.489 18.5592 162.531 17.8398 163.768 17.8398C164.699 17.8398 165.451 18.1719 166.023 18.8359C166.596 19.5 166.883 20.3822 166.883 21.4824V27H165.926V21.9023C165.926 20.9323 165.721 20.1706 165.311 19.6172C164.9 19.0573 164.324 18.7773 163.582 18.7773C163.029 18.7773 162.547 18.9434 162.137 19.2754C161.727 19.6074 161.303 20.1413 160.867 20.877V27H159.9V21.8828C159.9 20.8867 159.686 20.1217 159.256 19.5879C158.833 19.0475 158.263 18.7773 157.547 18.7773C156.505 18.7773 155.604 19.4186 154.842 20.7012V27H153.885V18.0156H154.842ZM169.354 26.502V13.3574H170.311V19.3047C171.268 18.3281 172.348 17.8398 173.553 17.8398C174.725 17.8398 175.685 18.25 176.434 19.0703C177.182 19.8841 177.557 20.9355 177.557 22.2246C177.557 23.722 177.098 24.9232 176.18 25.8281C175.268 26.7266 174.054 27.1758 172.537 27.1758C171.541 27.1758 170.48 26.9512 169.354 26.502ZM170.311 20.3789V25.8184C171.053 26.0983 171.788 26.2383 172.518 26.2383C173.676 26.2383 174.633 25.8672 175.389 25.125C176.15 24.3763 176.531 23.429 176.531 22.2832C176.531 21.222 176.238 20.3496 175.652 19.666C175.066 18.9824 174.327 18.6406 173.436 18.6406C172.368 18.6406 171.326 19.2201 170.311 20.3789ZM187.205 22.1758H180.125C180.105 22.332 180.096 22.4883 180.096 22.6445C180.096 23.6471 180.454 24.4967 181.17 25.1934C181.886 25.89 182.732 26.2383 183.709 26.2383C184.848 26.2383 185.962 25.7923 187.049 24.9004V25.9844C186.02 26.7786 184.868 27.1758 183.592 27.1758C182.296 27.1758 181.225 26.7266 180.379 25.8281C179.533 24.9297 179.109 23.7871 179.109 22.4004C179.109 21.0853 179.5 19.998 180.281 19.1387C181.062 18.2728 182.046 17.8398 183.23 17.8398C184.344 17.8398 185.285 18.2305 186.053 19.0117C186.821 19.7865 187.205 20.8411 187.205 22.1758ZM180.252 21.4043H186.072C185.734 19.653 184.786 18.7773 183.23 18.7773C182.495 18.7773 181.857 19.0085 181.316 19.4707C180.783 19.9264 180.428 20.571 180.252 21.4043ZM195.359 18.9043L194.803 19.8027C194.054 19.1191 193.452 18.7773 192.996 18.7773C192.098 18.7773 191.137 19.6367 190.115 21.3555V27H189.158V18.0156H190.115V20.3789H190.154C191.229 18.6862 192.277 17.8398 193.299 17.8398C193.885 17.8398 194.572 18.1947 195.359 18.9043ZM205.623 22.0195V22.957H200.887V22.0195H205.623ZM215.125 19.9004C213.934 19.0931 213.338 18.0677 213.338 16.8242C213.338 15.8411 213.696 14.9883 214.412 14.2656C215.128 13.543 215.971 13.1816 216.941 13.1816C217.938 13.1816 218.794 13.5397 219.51 14.2559C220.226 14.9655 220.584 15.8151 220.584 16.8047C220.584 18.0872 220.005 19.1191 218.846 19.9004C220.187 20.7077 220.857 21.834 220.857 23.2793C220.857 24.373 220.483 25.2975 219.734 26.0527C218.992 26.8014 218.081 27.1758 217 27.1758C215.906 27.1758 214.979 26.8047 214.217 26.0625C213.462 25.3203 213.084 24.4186 213.084 23.3574C213.084 21.873 213.764 20.7207 215.125 19.9004ZM214.363 16.8047C214.363 17.5469 214.614 18.1751 215.115 18.6895C215.623 19.2038 216.245 19.4609 216.98 19.4609C217.723 19.4609 218.338 19.2038 218.826 18.6895C219.314 18.1751 219.559 17.5306 219.559 16.7559C219.559 16.0332 219.305 15.418 218.797 14.9102C218.289 14.3958 217.671 14.1387 216.941 14.1387C216.225 14.1387 215.617 14.3991 215.115 14.9199C214.614 15.4342 214.363 16.0625 214.363 16.8047ZM219.842 23.2207C219.842 22.446 219.559 21.7852 218.992 21.2383C218.432 20.6914 217.749 20.418 216.941 20.418C216.154 20.418 215.483 20.7044 214.93 21.2773C214.376 21.8438 214.1 22.5241 214.1 23.3184C214.1 24.1191 214.38 24.8027 214.939 25.3691C215.499 25.9355 216.186 26.2188 217 26.2188C217.827 26.2188 218.507 25.9355 219.041 25.3691C219.575 24.8027 219.842 24.0866 219.842 23.2207ZM222.859 15.623V14.4219C223.868 13.5951 224.93 13.1816 226.043 13.1816C227.156 13.1816 228.1 13.5625 228.875 14.3242C229.65 15.0794 230.037 16.0039 230.037 17.0977C230.037 19.2656 228.364 22.2539 225.018 26.0625H231.365V27H222.703C226.915 22.944 229.021 19.6497 229.021 17.1172C229.021 16.2773 228.729 15.571 228.143 14.998C227.557 14.4251 226.831 14.1387 225.965 14.1387C225.392 14.1387 224.878 14.2559 224.422 14.4902C223.966 14.7246 223.445 15.1022 222.859 15.623ZM235.125 19.9004C233.934 19.0931 233.338 18.0677 233.338 16.8242C233.338 15.8411 233.696 14.9883 234.412 14.2656C235.128 13.543 235.971 13.1816 236.941 13.1816C237.938 13.1816 238.794 13.5397 239.51 14.2559C240.226 14.9655 240.584 15.8151 240.584 16.8047C240.584 18.0872 240.005 19.1191 238.846 19.9004C240.187 20.7077 240.857 21.834 240.857 23.2793C240.857 24.373 240.483 25.2975 239.734 26.0527C238.992 26.8014 238.081 27.1758 237 27.1758C235.906 27.1758 234.979 26.8047 234.217 26.0625C233.462 25.3203 233.084 24.4186 233.084 23.3574C233.084 21.873 233.764 20.7207 235.125 19.9004ZM234.363 16.8047C234.363 17.5469 234.614 18.1751 235.115 18.6895C235.623 19.2038 236.245 19.4609 236.98 19.4609C237.723 19.4609 238.338 19.2038 238.826 18.6895C239.314 18.1751 239.559 17.5306 239.559 16.7559C239.559 16.0332 239.305 15.418 238.797 14.9102C238.289 14.3958 237.671 14.1387 236.941 14.1387C236.225 14.1387 235.617 14.3991 235.115 14.9199C234.614 15.4342 234.363 16.0625 234.363 16.8047ZM239.842 23.2207C239.842 22.446 239.559 21.7852 238.992 21.2383C238.432 20.6914 237.749 20.418 236.941 20.418C236.154 20.418 235.483 20.7044 234.93 21.2773C234.376 21.8438 234.1 22.5241 234.1 23.3184C234.1 24.1191 234.38 24.8027 234.939 25.3691C235.499 25.9355 236.186 26.2188 237 26.2188C237.827 26.2188 238.507 25.9355 239.041 25.3691C239.575 24.8027 239.842 24.0866 239.842 23.2207ZM246.961 13.1816C248.185 13.1816 249.217 13.7969 250.057 15.0273C250.896 16.2513 251.316 17.9896 251.316 20.2422C251.316 22.3385 250.903 24.0182 250.076 25.2812C249.256 26.5443 248.23 27.1758 247 27.1758C245.711 27.1758 244.656 26.5573 243.836 25.3203C243.016 24.0768 242.605 22.4427 242.605 20.418C242.605 17.8984 243.045 16.0625 243.924 14.9102C244.809 13.7578 245.822 13.1816 246.961 13.1816ZM246.922 26.2188C247.938 26.2188 248.755 25.6458 249.373 24.5C249.992 23.3542 250.301 21.9023 250.301 20.1445C250.301 18.4258 249.998 16.9967 249.393 15.8574C248.794 14.7116 247.983 14.1387 246.961 14.1387C245.997 14.1387 245.2 14.7018 244.568 15.8281C243.937 16.9479 243.621 18.3997 243.621 20.1836C243.621 21.987 243.927 23.4453 244.539 24.5586C245.158 25.6654 245.952 26.2188 246.922 26.2188ZM256.961 13.1816C258.185 13.1816 259.217 13.7969 260.057 15.0273C260.896 16.2513 261.316 17.9896 261.316 20.2422C261.316 22.3385 260.903 24.0182 260.076 25.2812C259.256 26.5443 258.23 27.1758 257 27.1758C255.711 27.1758 254.656 26.5573 253.836 25.3203C253.016 24.0768 252.605 22.4427 252.605 20.418C252.605 17.8984 253.045 16.0625 253.924 14.9102C254.809 13.7578 255.822 13.1816 256.961 13.1816ZM256.922 26.2188C257.938 26.2188 258.755 25.6458 259.373 24.5C259.992 23.3542 260.301 21.9023 260.301 20.1445C260.301 18.4258 259.998 16.9967 259.393 15.8574C258.794 14.7116 257.983 14.1387 256.961 14.1387C255.997 14.1387 255.2 14.7018 254.568 15.8281C253.937 16.9479 253.621 18.3997 253.621 20.1836C253.621 21.987 253.927 23.4453 254.539 24.5586C255.158 25.6654 255.952 26.2188 256.922 26.2188ZM267.459 22.0195V22.957H262.723V22.0195H267.459ZM271.395 19.9004C270.203 19.0931 269.607 18.0677 269.607 16.8242C269.607 15.8411 269.965 14.9883 270.682 14.2656C271.398 13.543 272.241 13.1816 273.211 13.1816C274.207 13.1816 275.063 13.5397 275.779 14.2559C276.495 14.9655 276.854 15.8151 276.854 16.8047C276.854 18.0872 276.274 19.1191 275.115 19.9004C276.456 20.7077 277.127 21.834 277.127 23.2793C277.127 24.373 276.753 25.2975 276.004 26.0527C275.262 26.8014 274.35 27.1758 273.27 27.1758C272.176 27.1758 271.248 26.8047 270.486 26.0625C269.731 25.3203 269.354 24.4186 269.354 23.3574C269.354 21.873 270.034 20.7207 271.395 19.9004ZM270.633 16.8047C270.633 17.5469 270.883 18.1751 271.385 18.6895C271.893 19.2038 272.514 19.4609 273.25 19.4609C273.992 19.4609 274.607 19.2038 275.096 18.6895C275.584 18.1751 275.828 17.5306 275.828 16.7559C275.828 16.0332 275.574 15.418 275.066 14.9102C274.559 14.3958 273.94 14.1387 273.211 14.1387C272.495 14.1387 271.886 14.3991 271.385 14.9199C270.883 15.4342 270.633 16.0625 270.633 16.8047ZM276.111 23.2207C276.111 22.446 275.828 21.7852 275.262 21.2383C274.702 20.6914 274.018 20.418 273.211 20.418C272.423 20.418 271.753 20.7044 271.199 21.2773C270.646 21.8438 270.369 22.5241 270.369 23.3184C270.369 24.1191 270.649 24.8027 271.209 25.3691C271.769 25.9355 272.456 26.2188 273.27 26.2188C274.096 26.2188 274.777 25.9355 275.311 25.3691C275.844 24.8027 276.111 24.0866 276.111 23.2207ZM285.955 13.3574V14.3047H281.131V18.6211C281.502 18.5625 281.867 18.5332 282.225 18.5332C283.585 18.5332 284.679 18.9173 285.506 19.6855C286.333 20.4473 286.746 21.4727 286.746 22.7617C286.746 24.0247 286.326 25.0762 285.486 25.916C284.646 26.7559 283.595 27.1758 282.332 27.1758C281.277 27.1758 280.184 26.8763 279.051 26.2773V25.1152C280.32 25.8509 281.427 26.2188 282.371 26.2188C283.348 26.2188 284.152 25.8997 284.783 25.2617C285.415 24.6237 285.73 23.8164 285.73 22.8398C285.73 21.7721 285.395 20.9388 284.725 20.3398C284.054 19.7344 283.162 19.4316 282.049 19.4316C281.443 19.4316 280.818 19.5293 280.174 19.7246V13.3574H285.955ZM295.135 13.1816L295.73 13.9043C292.814 15.9681 291.121 18.2272 290.652 20.6816C291.609 19.972 292.615 19.6172 293.67 19.6172C294.757 19.6172 295.665 19.9753 296.395 20.6914C297.124 21.401 297.488 22.2832 297.488 23.3379C297.488 24.4512 297.124 25.3691 296.395 26.0918C295.665 26.8145 294.738 27.1758 293.611 27.1758C292.348 27.1758 291.339 26.7428 290.584 25.877C289.829 25.0046 289.451 23.8392 289.451 22.3809C289.451 19.0475 291.346 15.9811 295.135 13.1816ZM290.467 21.8633C290.441 22.0977 290.428 22.3288 290.428 22.5566C290.428 23.6634 290.721 24.5521 291.307 25.2227C291.893 25.8867 292.641 26.2188 293.553 26.2188C294.38 26.2188 295.073 25.9583 295.633 25.4375C296.193 24.9102 296.473 24.2591 296.473 23.4844C296.473 22.6641 296.189 21.9772 295.623 21.4238C295.057 20.8639 294.36 20.584 293.533 20.584C292.465 20.584 291.443 21.0104 290.467 21.8633ZM307.732 13.3574L301.492 27.1758L300.613 26.8047L306.248 14.3047H298.807V13.3574H307.732ZM313.729 22.0195V22.957H308.992V22.0195H313.729ZM319.5 13.1816C320.724 13.1816 321.756 13.7969 322.596 15.0273C323.436 16.2513 323.855 17.9896 323.855 20.2422C323.855 22.3385 323.442 24.0182 322.615 25.2812C321.795 26.5443 320.77 27.1758 319.539 27.1758C318.25 27.1758 317.195 26.5573 316.375 25.3203C315.555 24.0768 315.145 22.4427 315.145 20.418C315.145 17.8984 315.584 16.0625 316.463 14.9102C317.348 13.7578 318.361 13.1816 319.5 13.1816ZM319.461 26.2188C320.477 26.2188 321.294 25.6458 321.912 24.5C322.531 23.3542 322.84 21.9023 322.84 20.1445C322.84 18.4258 322.537 16.9967 321.932 15.8574C321.333 14.7116 320.522 14.1387 319.5 14.1387C318.536 14.1387 317.739 14.7018 317.107 15.8281C316.476 16.9479 316.16 18.3997 316.16 20.1836C316.16 21.987 316.466 23.4453 317.078 24.5586C317.697 25.6654 318.491 26.2188 319.461 26.2188ZM327.664 19.9004C326.473 19.0931 325.877 18.0677 325.877 16.8242C325.877 15.8411 326.235 14.9883 326.951 14.2656C327.667 13.543 328.51 13.1816 329.48 13.1816C330.477 13.1816 331.333 13.5397 332.049 14.2559C332.765 14.9655 333.123 15.8151 333.123 16.8047C333.123 18.0872 332.544 19.1191 331.385 19.9004C332.726 20.7077 333.396 21.834 333.396 23.2793C333.396 24.373 333.022 25.2975 332.273 26.0527C331.531 26.8014 330.62 27.1758 329.539 27.1758C328.445 27.1758 327.518 26.8047 326.756 26.0625C326.001 25.3203 325.623 24.4186 325.623 23.3574C325.623 21.873 326.303 20.7207 327.664 19.9004ZM326.902 16.8047C326.902 17.5469 327.153 18.1751 327.654 18.6895C328.162 19.2038 328.784 19.4609 329.52 19.4609C330.262 19.4609 330.877 19.2038 331.365 18.6895C331.854 18.1751 332.098 17.5306 332.098 16.7559C332.098 16.0332 331.844 15.418 331.336 14.9102C330.828 14.3958 330.21 14.1387 329.48 14.1387C328.764 14.1387 328.156 14.3991 327.654 14.9199C327.153 15.4342 326.902 16.0625 326.902 16.8047ZM332.381 23.2207C332.381 22.446 332.098 21.7852 331.531 21.2383C330.971 20.6914 330.288 20.418 329.48 20.418C328.693 20.418 328.022 20.7044 327.469 21.2773C326.915 21.8438 326.639 22.5241 326.639 23.3184C326.639 24.1191 326.919 24.8027 327.479 25.3691C328.038 25.9355 328.725 26.2188 329.539 26.2188C330.366 26.2188 331.046 25.9355 331.58 25.3691C332.114 24.8027 332.381 24.0866 332.381 23.2207ZM337.381 27.1758L336.824 26.4434C339.832 24.2754 341.538 22.026 341.941 19.6953C340.88 20.3789 339.881 20.7207 338.943 20.7207C337.869 20.7207 336.967 20.3626 336.238 19.6465C335.509 18.9238 335.145 18.0352 335.145 16.9805C335.145 15.8737 335.503 14.9655 336.219 14.2559C336.941 13.5397 337.863 13.1816 338.982 13.1816C340.278 13.1816 341.3 13.6081 342.049 14.4609C342.804 15.3138 343.182 16.4792 343.182 17.957C343.182 21.349 341.248 24.4219 337.381 27.1758ZM342.117 18.4844C342.137 18.276 342.146 18.0742 342.146 17.8789C342.146 16.707 341.873 15.7923 341.326 15.1348C340.786 14.4707 340.024 14.1387 339.041 14.1387C338.234 14.1387 337.55 14.4056 336.99 14.9395C336.437 15.4668 336.16 16.1276 336.16 16.9219C336.16 17.7292 336.427 18.4062 336.961 18.9531C337.501 19.4935 338.175 19.7637 338.982 19.7637C340.128 19.7637 341.173 19.3372 342.117 18.4844Z" fill="black"/>
<circle cx="19" cy="20" r="19" stroke="#10111F" stroke-width="0.8"/>
<path d="M28 24.42V27.956C28.0002 28.4813 27.594 28.9172 27.07 28.954C26.633 28.984 26.276 29 26 29C17.163 29 10 21.837 10 13C10 12.724 10.015 12.367 10.046 11.93C10.0828 11.406 10.5187 10.9998 11.044 11H14.58C14.837 10.9997 15.0523 11.1943 15.078 11.45C15.101 11.68 15.122 11.863 15.142 12.002C15.3407 13.3889 15.748 14.7378 16.35 16.003C16.445 16.203 16.383 16.442 16.203 16.57L14.045 18.112C15.3645 21.1865 17.8145 23.6365 20.889 24.956L22.429 22.802C22.5589 22.6204 22.8001 22.5577 23.002 22.653C24.267 23.2539 25.6156 23.6601 27.002 23.858C27.141 23.878 27.324 23.9 27.552 23.922C27.8073 23.9482 28.0013 24.1634 28.001 24.42H28Z" fill="black"/>
</g>
<defs>
<clipPath id="clip0_1_19">
<rect width="345" height="40" fill="white"/>
</clipPath>
</defs>
</svg>
